<svg width="24" height="24" viewBox="0 0 24 24" fill="none" xmlns="http://www.w3.org/2000/svg">
<g id="keyboard_backspace_24px">
<path id="icon/hardware/keyboard_backspace_24px" d="M19.7912 10.995H6.62125L9.50125 8.11499C9.89125 7.72499 9.89125 7.09499 9.50125 6.70499C9.31442 6.51774 9.06077 6.41251 8.79625 6.41251C8.53173 6.41251 8.27808 6.51774 8.09125 6.70499L3.50125 11.295C3.11125 11.685 3.11125 12.315 3.50125 12.705L8.09125 17.295C8.48125 17.685 9.11125 17.685 9.50125 17.295C9.89125 16.905 9.89125 16.275 9.50125 15.885L6.62125 12.995H19.7912C20.3412 12.995 20.7912 12.545 20.7912 11.995C20.7912 11.445 20.3412 10.995 19.7912 10.995Z" fill="white"/>
</g>
</svg>
