<svg width="64" height="64" viewBox="0 0 64 64" fill="none" xmlns="http://www.w3.org/2000/svg">
<rect width="64" height="64" rx="12" fill="url(#paint0_linear)"/>
<path fill-rule="evenodd" clip-rule="evenodd" d="M38.51 24.51L44.145 30.145C44.5883 30.5884 44.8333 31.1834 44.8333 31.8017V34.3334C44.8333 35.6167 43.7833 36.6667 42.5 36.6667C42.5 38.6034 40.9367 40.1667 39 40.1667C37.0633 40.1667 35.5 38.6034 35.5 36.6667H28.5C28.5 38.6034 26.9367 40.1667 25 40.1667C23.0633 40.1667 21.5 38.6034 21.5 36.6667C20.2167 36.6667 19.1667 35.6167 19.1667 34.3334V26.1667C19.1667 24.8717 20.2167 23.8334 21.5 23.8334H36.865C37.4833 23.8334 38.0783 24.0784 38.51 24.51ZM21.5 27.3334V29.6667C21.5 30.3084 22.025 30.8334 22.6667 30.8334H26.1667V26.1667H22.6667C22.025 26.1667 21.5 26.6917 21.5 27.3334ZM25 38.125C24.195 38.125 23.5417 37.4717 23.5417 36.6667C23.5417 35.8617 24.195 35.2084 25 35.2084C25.805 35.2084 26.4583 35.8617 26.4583 36.6667C26.4583 37.4717 25.805 38.125 25 38.125ZM28.5 30.8334H33.1667V26.1667H28.5V30.8334ZM39 38.125C38.195 38.125 37.5417 37.4717 37.5417 36.6667C37.5417 35.8617 38.195 35.2084 39 35.2084C39.805 35.2084 40.4583 35.8617 40.4583 36.6667C40.4583 37.4717 39.805 38.125 39 38.125ZM35.5 26.1667V30.8334H41.3333L36.6667 26.1667H35.5Z" fill="white"/>
<defs>
<linearGradient id="paint0_linear" x1="1.35288e-06" y1="52.4444" x2="76.8889" y2="5.42697e-08" gradientUnits="userSpaceOnUse">
<stop stop-color="#4FACFE"/>
<stop offset="1" stop-color="#00F2FE"/>
</linearGradient>
</defs>
</svg>
