<svg width="64" height="64" viewBox="0 0 64 64" fill="none" xmlns="http://www.w3.org/2000/svg">
<rect width="64" height="64" rx="12" fill="url(#paint0_linear)"/>
<path fill-rule="evenodd" clip-rule="evenodd" d="M22.8883 23.1056L31.055 19.4773C31.65 19.2089 32.35 19.2089 32.945 19.4773L41.1117 23.1056C41.9517 23.4789 42.5 24.3189 42.5 25.2406V30.7239C42.5 37.1989 38.02 43.2539 32 44.7239C25.98 43.2539 21.5 37.1989 21.5 30.7239V25.2406C21.5 24.3189 22.0483 23.4789 22.8883 23.1056ZM40.1667 31.8789H32V21.6123L23.8333 25.2406V31.8906H32V42.3089C36.34 40.9673 39.5483 36.6856 40.1667 31.8789Z" fill="white"/>
<defs>
<linearGradient id="paint0_linear" x1="0" y1="32" x2="64" y2="32" gradientUnits="userSpaceOnUse">
<stop stop-color="#00C6FB"/>
<stop offset="1" stop-color="#005BEA"/>
</linearGradient>
</defs>
</svg>
