<svg width="64" height="64" viewBox="0 0 64 64" fill="none" xmlns="http://www.w3.org/2000/svg">
<rect width="64" height="64" rx="12" fill="url(#paint0_linear)"/>
<path fill-rule="evenodd" clip-rule="evenodd" d="M40.68 28.535L38.195 26.05L36.3283 24.1834C36.1067 23.9617 35.8033 23.8334 35.5 23.8334H32C31.3583 23.8334 30.8333 24.3584 30.8333 25C30.8333 25.6417 31.3583 26.1667 32 26.1667H35.0217L37.355 28.5H23.8333C20.5667 28.5 18 31.0667 18 34.3334C18 37.6 20.5667 40.1667 23.8333 40.1667C26.7033 40.1667 29.025 38.195 29.55 35.5H30.5067C31.125 35.5 31.72 35.255 32.1517 34.8117L34.695 32.2684C34.4617 32.8984 34.3333 33.5984 34.3333 34.3334C34.3333 37.6 36.9 40.1667 40.1667 40.1667C43.4333 40.1667 46 37.6 46 34.3334C46 31.2417 43.7017 28.7684 40.68 28.535ZM23.8333 35.5H27.1233C26.6333 36.8417 25.3267 37.8334 23.8333 37.8334C21.9317 37.8334 20.3333 36.235 20.3333 34.3334C20.3333 32.4317 21.9317 30.8334 23.8333 30.8334C25.3267 30.8334 26.6333 31.825 27.1233 33.1667H23.8333C23.1917 33.1667 22.6667 33.6917 22.6667 34.3334C22.6667 34.975 23.1917 35.5 23.8333 35.5ZM36.6667 34.3334C36.6667 36.27 38.23 37.8334 40.1667 37.8334C42.1033 37.8334 43.6667 36.27 43.6667 34.3334C43.6667 32.3967 42.1033 30.8334 40.1667 30.8334C38.23 30.8334 36.6667 32.3967 36.6667 34.3334Z" fill="white"/>
<defs>
<linearGradient id="paint0_linear" x1="2.65756e-06" y1="60.8889" x2="73.3333" y2="-2.43496e-06" gradientUnits="userSpaceOnUse">
<stop stop-color="#667EEA"/>
<stop offset="1" stop-color="#764BA2"/>
</linearGradient>
</defs>
</svg>
