<svg width="64" height="64" viewBox="0 0 64 64" fill="none" xmlns="http://www.w3.org/2000/svg">
<rect x="1" y="1" width="62" height="62" rx="11" stroke="#2962FF" stroke-width="2"/>
<path d="M39 33.1667H33.1667V39C33.1667 39.6417 32.6417 40.1667 32 40.1667C31.3583 40.1667 30.8333 39.6417 30.8333 39V33.1667H25C24.3583 33.1667 23.8333 32.6417 23.8333 32C23.8333 31.3584 24.3583 30.8334 25 30.8334H30.8333V25C30.8333 24.3584 31.3583 23.8334 32 23.8334C32.6417 23.8334 33.1667 24.3584 33.1667 25V30.8334H39C39.6417 30.8334 40.1667 31.3584 40.1667 32C40.1667 32.6417 39.6417 33.1667 39 33.1667Z" fill="white"/>
</svg>
