<svg width="64" height="79" viewBox="0 0 64 79" fill="none" xmlns="http://www.w3.org/2000/svg">
<path d="M0.453003 66.8H3.045V75.888H8.661V78H0.453003V66.8Z" fill="#2962FF"/>
<path d="M17.879 75.6H12.679L11.687 78H9.031L14.023 66.8H16.583L21.591 78H18.871L17.879 75.6ZM17.063 73.632L15.287 69.344L13.511 73.632H17.063Z" fill="#2962FF"/>
<path d="M27.7415 74.032V78H25.1495V74L20.8135 66.8H23.5655L26.5575 71.776L29.5495 66.8H32.0935L27.7415 74.032Z" fill="#2962FF"/>
<path d="M32.4508 72.496H36.9788V74.496H32.4508V72.496Z" fill="#2962FF"/>
<path d="M44.9051 78.192C43.7425 78.192 42.6918 77.9413 41.7531 77.44C40.8251 76.9387 40.0945 76.2507 39.5611 75.376C39.0385 74.4907 38.7771 73.4987 38.7771 72.4C38.7771 71.3013 39.0385 70.3147 39.5611 69.44C40.0945 68.5547 40.8251 67.8613 41.7531 67.36C42.6918 66.8587 43.7425 66.608 44.9051 66.608C46.0678 66.608 47.1131 66.8587 48.0411 67.36C48.9691 67.8613 49.6998 68.5547 50.2331 69.44C50.7665 70.3147 51.0331 71.3013 51.0331 72.4C51.0331 73.4987 50.7665 74.4907 50.2331 75.376C49.6998 76.2507 48.9691 76.9387 48.0411 77.44C47.1131 77.9413 46.0678 78.192 44.9051 78.192ZM44.9051 75.984C45.5665 75.984 46.1638 75.8347 46.6971 75.536C47.2305 75.2267 47.6465 74.8 47.9451 74.256C48.2545 73.712 48.4091 73.0933 48.4091 72.4C48.4091 71.7067 48.2545 71.088 47.9451 70.544C47.6465 70 47.2305 69.5787 46.6971 69.28C46.1638 68.9707 45.5665 68.816 44.9051 68.816C44.2438 68.816 43.6465 68.9707 43.1131 69.28C42.5798 69.5787 42.1585 70 41.8491 70.544C41.5505 71.088 41.4011 71.7067 41.4011 72.4C41.4011 73.0933 41.5505 73.712 41.8491 74.256C42.1585 74.8 42.5798 75.2267 43.1131 75.536C43.6465 75.8347 44.2438 75.984 44.9051 75.984Z" fill="#2962FF"/>
<path d="M63.5531 66.8V78H61.4251L55.8411 71.2V78H53.2811V66.8H55.4251L60.9931 73.6V66.8H63.5531Z" fill="#2962FF"/>
<circle cx="32" cy="23" r="22.5" fill="#2962FF" stroke="white"/>
<path d="M30 25.74V6H34.368V22.184H43.188V25.74H30Z" fill="white"/>
</svg>
