<svg width="32" height="32" viewBox="0 0 32 32" fill="none" xmlns="http://www.w3.org/2000/svg">
<circle cx="16" cy="16" r="16" fill="#02123C"/>
<path d="M16 22.6667C16.7333 22.6667 17.3333 22.0667 17.3333 21.3333H14.6667C14.6667 22.0667 15.26 22.6667 16 22.6667ZM20 18.6667V15.3333C20 13.2867 18.9067 11.5733 17 11.12V10.6667C17 10.1133 16.5533 9.66666 16 9.66666C15.4467 9.66666 15 10.1133 15 10.6667V11.12C13.0867 11.5733 12 13.28 12 15.3333V18.6667L10.6667 20V20.6667H21.3333V20L20 18.6667Z" fill="#2962FF"/>
<circle cx="21" cy="9" r="5" fill="white" stroke="#02123C" stroke-width="2"/>
</svg>
