<svg width="40" height="40" viewBox="0 0 40 40" fill="none" xmlns="http://www.w3.org/2000/svg">
<circle cx="20" cy="20" r="20" fill="#7259B5"/>
<path fill-rule="evenodd" clip-rule="evenodd" d="M15.8461 16.0807C17.9327 15.6674 19.7994 16.874 20.4327 18.6674H25.9994C26.7327 18.6674 27.3327 19.2674 27.3327 20.0007C27.3327 20.734 26.7327 21.334 25.9994 21.334V22.6674C25.9994 23.4007 25.3994 24.0007 24.6661 24.0007C23.9327 24.0007 23.3327 23.4007 23.3327 22.6674V21.334H20.4327C19.8861 22.8874 18.4061 24.0007 16.6661 24.0007C14.1727 24.0007 12.2127 21.714 12.7594 19.134C13.0794 17.6074 14.3194 16.3874 15.8461 16.0807ZM15.3327 20.0007C15.3327 20.734 15.9327 21.334 16.6661 21.334C17.3994 21.334 17.9994 20.734 17.9994 20.0007C17.9994 19.2674 17.3994 18.6674 16.6661 18.6674C15.9327 18.6674 15.3327 19.2674 15.3327 20.0007Z" fill="white"/>
</svg>
