<svg width="40" height="40" viewBox="0 0 40 40" fill="none" xmlns="http://www.w3.org/2000/svg">
<circle cx="20" cy="20" r="20" fill="#EE609C"/>
<path fill-rule="evenodd" clip-rule="evenodd" d="M15.3333 14H24.6667C25.4 14 26 14.6 26 15.3333V24.6667C26 25.4 25.4 26 24.6667 26H15.3333C14.6 26 14 25.4 14 24.6667V22.6667C14 22.3 14.3 22 14.6667 22C15.0333 22 15.3333 22.3 15.3333 22.6667V24C15.3333 24.3667 15.6333 24.6667 16 24.6667H24C24.3667 24.6667 24.6667 24.3667 24.6667 24V16C24.6667 15.6333 24.3667 15.3333 24 15.3333H16C15.6333 15.3333 15.3333 15.6333 15.3333 16V17.3333C15.3333 17.7 15.0333 18 14.6667 18C14.3 18 14 17.7 14 17.3333V15.3333C14 14.6 14.5933 14 15.3333 14ZM22.5267 20.4667L20.1333 22.86C19.8733 23.12 19.4533 23.12 19.1933 22.86C18.94 22.6067 18.9333 22.18 19.1933 21.92L20.4467 20.6667H14.6667C14.3 20.6667 14 20.3667 14 20C14 19.6333 14.3 19.3333 14.6667 19.3333H20.4467L19.1933 18.0733C18.9333 17.8133 18.9333 17.3933 19.1933 17.1333C19.3179 17.0085 19.487 16.9383 19.6633 16.9383C19.8397 16.9383 20.0088 17.0085 20.1333 17.1333L22.5267 19.5267C22.7867 19.7867 22.7867 20.2067 22.5267 20.4667Z" fill="white"/>
</svg>
