<svg width="40" height="40" viewBox="0 0 40 40" fill="none" xmlns="http://www.w3.org/2000/svg">
<circle cx="20" cy="20" r="20" fill="#3BBFFE"/>
<path fill-rule="evenodd" clip-rule="evenodd" d="M22.6667 17.3333C22.6667 18.8067 21.4734 20 20 20C18.5267 20 17.3334 18.8067 17.3334 17.3333C17.3334 15.86 18.5267 14.6667 20 14.6667C21.4734 14.6667 22.6667 15.86 22.6667 17.3333ZM14.6667 24C14.6667 22.2267 18.22 21.3333 20 21.3333C21.78 21.3333 25.3334 22.2267 25.3334 24V24.6667C25.3334 25.0333 25.0334 25.3333 24.6667 25.3333H15.3334C14.9667 25.3333 14.6667 25.0333 14.6667 24.6667V24Z" fill="white"/>
</svg>
